<svg width="256" height="25" viewBox="0 0 256 25" fill="none" xmlns="http://www.w3.org/2000/svg">
  <path d="M17.8134 1.49609C17.8329 1.59375 17.8719 1.68164 17.9305 1.75977C17.9891 1.81836 18.0477 1.86719 18.1063 1.90625C18.1259 2.0625 18.1356 2.22852 18.1356 2.4043C18.1552 2.56055 18.1844 2.7168 18.2235 2.87305C18.2235 2.95117 18.2235 3.03906 18.2235 3.13672C18.2235 3.21484 18.2528 3.2832 18.3114 3.3418C18.2528 4.02539 18.1552 4.5918 18.0184 5.04102C17.9012 5.4707 17.7938 5.94922 17.6962 6.47656C17.6766 6.57422 17.6473 6.67187 17.6083 6.76953C17.5887 6.84766 17.579 6.93555 17.579 7.0332C17.5594 7.11133 17.5497 7.17969 17.5497 7.23828C17.5692 7.29688 17.5692 7.36523 17.5497 7.44336C17.5106 7.56055 17.452 7.6875 17.3739 7.82422C17.2958 7.96094 17.2177 8.10742 17.1395 8.26367C16.827 8.83008 16.4755 9.36719 16.0848 9.875C15.7137 10.3828 15.245 10.7734 14.6786 11.0469C14.4637 11.1445 14.2782 11.2422 14.1219 11.3398C13.9852 11.418 13.8094 11.4766 13.5946 11.5156C13.4579 11.5938 13.2919 11.6816 13.0966 11.7793C12.9208 11.8574 12.745 11.916 12.5692 11.9551C12.4911 11.9941 12.413 12.0137 12.3348 12.0137C12.2567 12.0137 12.1786 12.0234 12.1005 12.043C12.0028 12.082 11.9149 12.1211 11.8368 12.1602C11.7782 12.1797 11.7196 12.1992 11.661 12.2188C11.5048 12.2578 11.3876 12.2773 11.3094 12.2773C11.1727 12.2578 11.0751 12.1797 11.0165 12.043C10.9579 11.8867 10.9286 11.7305 10.9286 11.5742C10.8505 11.4961 10.7626 11.4277 10.6649 11.3691C10.5673 11.3105 10.4989 11.2031 10.4598 11.0469C10.4012 10.832 10.3622 10.7148 10.3427 10.6953C10.3231 10.6758 10.3036 10.6465 10.2841 10.6074C10.1864 10.334 10.1473 10.0312 10.1669 9.69922C10.2059 9.34766 10.2841 9.06445 10.4012 8.84961C10.4403 8.75195 10.4989 8.68359 10.577 8.64453C10.6552 8.58594 10.704 8.50781 10.7235 8.41016C10.8798 8.3125 11.0165 8.21484 11.1337 8.11719C11.2509 8 11.3876 7.89258 11.5438 7.79492C11.7391 7.46289 11.9637 7.20898 12.2177 7.0332C12.4716 6.85742 12.7157 6.67187 12.9501 6.47656C13.0282 6.41797 13.0868 6.34961 13.1259 6.27148C13.1844 6.19336 13.2626 6.11523 13.3602 6.03711C13.4188 5.97852 13.4872 5.92969 13.5653 5.89062C13.6434 5.83203 13.7118 5.7832 13.7704 5.74414C13.8094 5.70508 13.8485 5.66602 13.8876 5.62695C13.9266 5.58789 13.9657 5.54883 14.0048 5.50977C14.0829 5.4707 14.161 5.45117 14.2391 5.45117C14.3173 5.45117 14.3954 5.43164 14.4735 5.39258C14.7469 5.35352 14.8837 5.37305 14.8837 5.45117C14.8837 5.50977 14.8837 5.57813 14.8837 5.65625C14.786 5.71484 14.6688 5.77344 14.5321 5.83203C14.3954 5.87109 14.2587 5.91016 14.1219 5.94922C14.0829 6.10547 13.995 6.22266 13.8583 6.30078C13.7411 6.37891 13.6337 6.48633 13.536 6.62305C13.4579 6.7207 13.3895 6.81836 13.3309 6.91602C13.2919 6.99414 13.204 7.05273 13.0673 7.0918C12.9696 7.32617 12.8427 7.53125 12.6864 7.70703C12.5497 7.86328 12.413 8.0293 12.2762 8.20508C12.2762 8.41992 12.2274 8.60547 12.1298 8.76172C12.0516 8.89844 11.9637 9.04492 11.8661 9.20117C11.827 9.2793 11.788 9.35742 11.7489 9.43555C11.7098 9.51367 11.6903 9.57227 11.6903 9.61133C11.7098 9.65039 11.7294 9.70898 11.7489 9.78711C11.788 9.8457 11.827 9.9043 11.8661 9.96289C11.9052 10.0215 11.9442 10.0703 11.9833 10.1094C12.0419 10.1484 12.0809 10.1973 12.1005 10.2559C12.5692 9.96289 13.0282 9.66992 13.4774 9.37695C13.9462 9.08398 14.3466 8.73242 14.6786 8.32227C14.7762 8.14648 14.8641 7.98047 14.9423 7.82422C15.0399 7.64844 15.1376 7.46289 15.2352 7.26758C15.2743 7.07227 15.3329 6.88672 15.411 6.71094C15.4891 6.53516 15.577 6.35938 15.6747 6.18359C15.7723 5.98828 15.8602 5.79297 15.9384 5.59766C16.0165 5.40234 16.0653 5.19727 16.0848 4.98242C16.1044 4.82617 16.1044 4.66016 16.0848 4.48438C16.0848 4.28906 16.1141 4.14258 16.1727 4.04492C16.1337 3.94727 16.1337 3.82031 16.1727 3.66406C16.2118 3.48828 16.2216 3.32227 16.202 3.16602C16.0653 2.87305 15.9286 2.70703 15.7919 2.66797C15.6552 2.60938 15.5087 2.56055 15.3524 2.52148C15.1962 2.61914 15.0302 2.72656 14.8544 2.84375C14.6786 2.96094 14.5126 3.08789 14.3563 3.22461C14.2391 3.3418 14.1122 3.45898 13.9755 3.57617C13.8583 3.69336 13.7606 3.83008 13.6825 3.98633C13.4286 4.25977 13.2235 4.50391 13.0673 4.71875C12.911 4.91406 12.7548 5.11914 12.5985 5.33398C12.2665 5.54883 11.9637 5.7832 11.6903 6.03711C11.4169 6.29102 11.1141 6.52539 10.7821 6.74023C10.5282 6.93555 10.2743 7.14062 10.0204 7.35547C9.78601 7.55078 9.5614 7.75586 9.34656 7.9707C9.15125 8.18555 8.94617 8.39062 8.73132 8.58594C8.51648 8.76172 8.32117 8.95703 8.14539 9.17188C7.98914 9.38672 7.82312 9.61133 7.64734 9.8457C7.47156 10.0605 7.29578 10.2754 7.12 10.4902C7.02234 10.5879 6.93445 10.6953 6.85632 10.8125C6.7782 10.9297 6.69031 11.0469 6.59265 11.1641C6.495 11.2617 6.39734 11.3691 6.29968 11.4863C6.22156 11.6035 6.14343 11.7109 6.06531 11.8086C6.00671 11.9062 5.95789 12.0137 5.91882 12.1309C5.87976 12.2285 5.83093 12.3262 5.77234 12.4238C5.57703 12.6582 5.38171 12.9023 5.1864 13.1562C5.01062 13.3906 4.85437 13.6641 4.71765 13.9766C4.48328 14.2891 4.29773 14.6016 4.16101 14.9141C4.04382 15.207 3.9071 15.5 3.75085 15.793C3.71179 16.0664 3.63367 16.3105 3.51648 16.5254C3.41882 16.7402 3.35046 16.9844 3.3114 17.2578C3.29187 17.3945 3.25281 17.5312 3.19421 17.668C3.15515 17.7852 3.12585 17.9219 3.10632 18.0781C3.06726 18.2148 3.04773 18.3613 3.04773 18.5176C3.04773 18.6543 3.0282 18.7812 2.98914 18.8984C2.87195 19.1523 2.81335 19.3379 2.81335 19.4551C2.81335 19.5527 2.76453 19.6309 2.66687 19.6895C2.72546 19.8457 2.77429 19.9824 2.81335 20.0996C2.87195 20.2168 2.95007 20.334 3.04773 20.4512C3.08679 20.5293 3.14539 20.5977 3.22351 20.6562C3.30164 20.7148 3.36023 20.7832 3.39929 20.8613C3.47742 21.0566 3.53601 21.1738 3.57507 21.2129C3.63367 21.252 3.70203 21.3008 3.78015 21.3594C3.83875 21.3984 3.9071 21.4473 3.98523 21.5059C4.08289 21.5645 4.17078 21.6035 4.2489 21.623C4.34656 21.6621 4.44421 21.6816 4.54187 21.6816C4.65906 21.6621 4.76648 21.6621 4.86414 21.6816C4.96179 21.6816 5.04968 21.6914 5.12781 21.7109C5.20593 21.7109 5.29382 21.7012 5.39148 21.6816C5.54773 21.6426 5.73328 21.6035 5.94812 21.5645C6.16296 21.5059 6.35828 21.457 6.53406 21.418C6.8075 21.3398 7.07117 21.2617 7.32507 21.1836C7.59851 21.1055 7.85242 21.0176 8.08679 20.9199C8.3407 20.8223 8.54578 20.6855 8.70203 20.5098C8.85828 20.334 9.03406 20.1973 9.22937 20.0996C9.54187 19.8652 9.75671 19.6797 9.8739 19.543C10.0106 19.3867 10.1571 19.2598 10.3134 19.1621C10.4501 18.9863 10.5282 18.8984 10.5477 18.8984C10.5673 18.8984 10.5868 18.8887 10.6063 18.8691C10.743 18.7129 10.87 18.5762 10.9872 18.459C11.1239 18.3223 11.2606 18.1758 11.3973 18.0195C11.6122 17.9219 11.788 17.7949 11.9247 17.6387C12.0809 17.5801 12.2079 17.502 12.3055 17.4043C12.4227 17.3066 12.5399 17.209 12.6571 17.1113C12.8134 16.9941 12.9208 16.9062 12.9794 16.8477C13.0575 16.7695 13.1259 16.6914 13.1844 16.6133C13.2626 16.5352 13.3407 16.4473 13.4188 16.3496C13.4579 16.3105 13.5165 16.2715 13.5946 16.2324C13.6727 16.1738 13.7509 16.0957 13.829 15.998C13.868 15.9395 13.9071 15.8613 13.9462 15.7637C13.9852 15.666 14.0536 15.6172 14.1512 15.6172C14.2684 15.5977 14.3954 15.6562 14.5321 15.793C14.6688 15.9102 14.7372 16.0371 14.7372 16.1738C14.5614 16.4473 14.4637 16.6133 14.4442 16.6719C14.3075 16.8672 14.161 17.0527 14.0048 17.2285C13.8485 17.4043 13.6923 17.5996 13.536 17.8145C13.3798 17.9902 13.2235 18.1758 13.0673 18.3711C12.911 18.5469 12.7645 18.7422 12.6278 18.957C12.4911 19.1719 12.3348 19.3672 12.1591 19.543C12.0028 19.6992 11.8368 19.875 11.661 20.0703C11.4071 20.3438 11.1532 20.5977 10.8993 20.832C10.6649 21.0664 10.4403 21.3496 10.2255 21.6816C10.1278 21.7793 10.0302 21.877 9.9325 21.9746C9.83484 22.0527 9.73718 22.1406 9.63953 22.2383C9.54187 22.2969 9.44421 22.3652 9.34656 22.4434C9.26843 22.502 9.18054 22.5605 9.08289 22.6191C8.69226 22.7559 8.29187 22.9316 7.88171 23.1465C7.49109 23.3809 7.05164 23.5664 6.56335 23.7031C6.34851 23.7617 6.1239 23.8301 5.88953 23.9082C5.67468 23.9863 5.43054 24.0156 5.1571 23.9961C5.11804 23.9766 5.06921 23.9668 5.01062 23.9668C4.95203 23.9668 4.89343 23.957 4.83484 23.9375C4.71765 23.918 4.5907 23.8789 4.45398 23.8203C4.33679 23.7617 4.20007 23.7227 4.04382 23.7031C3.94617 23.7031 3.85828 23.7129 3.78015 23.7324C3.70203 23.7715 3.61414 23.791 3.51648 23.791C3.08679 23.5176 2.73523 23.2832 2.46179 23.0879C2.20789 22.9121 1.97351 22.6973 1.75867 22.4434C1.60242 22.1895 1.495 22.0332 1.4364 21.9746C1.37781 21.8965 1.30945 21.8086 1.23132 21.7109C1.1532 21.5938 1.07507 21.4766 0.996948 21.3594C0.918823 21.2227 0.840698 21.0762 0.762573 20.9199C0.762573 20.8418 0.733276 20.7734 0.674683 20.7148C0.63562 20.6562 0.596558 20.5879 0.557495 20.5098C0.459839 20.1777 0.411011 19.8359 0.411011 19.4844C0.411011 19.1133 0.420776 18.752 0.440308 18.4004C0.459839 18.3027 0.459839 18.2148 0.440308 18.1367C0.420776 18.0391 0.411011 17.9414 0.411011 17.8438C0.411011 17.6875 0.440308 17.5215 0.498901 17.3457C0.557495 17.1699 0.606323 17.0039 0.645386 16.8477C0.762573 16.418 0.889526 16.0176 1.02625 15.6465C1.1825 15.2559 1.35828 14.8945 1.55359 14.5625C1.72937 14.3281 1.85632 14.1035 1.93445 13.8887C2.0321 13.6738 2.12976 13.4492 2.22742 13.2148C2.32507 13 2.42273 12.7949 2.52039 12.5996C2.61804 12.3848 2.72546 12.1699 2.84265 11.9551C2.94031 11.7598 3.03796 11.5645 3.13562 11.3691C3.25281 11.1738 3.39929 10.998 3.57507 10.8418C3.63367 10.627 3.72156 10.4512 3.83875 10.3145C3.95593 10.1582 4.07312 10.002 4.19031 9.8457C4.38562 9.57227 4.58093 9.31836 4.77625 9.08398C4.99109 8.84961 5.17664 8.58594 5.33289 8.29297C5.48914 8.17578 5.62585 8.04883 5.74304 7.91211C5.87976 7.77539 6.00671 7.63867 6.1239 7.50195C6.26062 7.3457 6.38757 7.20898 6.50476 7.0918C6.64148 6.95508 6.7782 6.80859 6.91492 6.65234C6.99304 6.59375 7.0614 6.53516 7.12 6.47656C7.19812 6.39844 7.26648 6.33008 7.32507 6.27148C7.46179 6.11523 7.59851 5.97852 7.73523 5.86133C7.87195 5.74414 8.01843 5.62695 8.17468 5.50977C8.35046 5.43164 8.51648 5.32422 8.67273 5.1875C8.84851 5.01172 9.01453 4.83594 9.17078 4.66016C9.34656 4.46484 9.52234 4.28906 9.69812 4.13281C9.97156 3.85937 10.2548 3.5957 10.5477 3.3418C10.8407 3.06836 11.1532 2.82422 11.4852 2.60938C11.6805 2.39453 11.9149 2.21875 12.1884 2.08203C12.4618 1.92578 12.7352 1.7793 13.0087 1.64258C13.1649 1.58398 13.2919 1.53516 13.3895 1.49609C13.5067 1.4375 13.6337 1.36914 13.7704 1.29102C13.9852 1.1543 14.1415 1.08594 14.2391 1.08594C14.3368 1.06641 14.4149 1.01758 14.4735 0.939453C14.7079 0.939453 14.913 0.910156 15.0887 0.851562C15.2645 0.773438 15.4598 0.763672 15.6747 0.822266C15.7528 0.841797 15.8212 0.871094 15.8798 0.910156C15.9384 0.929687 15.9969 0.949219 16.0555 0.96875C16.4266 1.00781 16.6903 1.06641 16.8466 1.14453C17.0028 1.22266 17.1493 1.30078 17.286 1.37891C17.4423 1.4375 17.618 1.47656 17.8134 1.49609ZM45.4473 14.5332C45.545 14.5527 45.6036 14.5918 45.6231 14.6504C45.6622 14.709 45.7208 14.7383 45.7989 14.7383C45.8184 14.8359 45.8087 14.9141 45.7696 14.9727C45.7501 15.0312 45.7208 15.0898 45.6817 15.1484C45.6427 15.1875 45.6036 15.2363 45.5645 15.2949C45.545 15.334 45.545 15.3926 45.5645 15.4707C45.3887 15.5879 45.1739 15.666 44.92 15.7051C44.6661 15.7246 44.4708 15.8223 44.3341 15.998C44.002 16.1543 43.6407 16.2617 43.2501 16.3203C42.879 16.3594 42.4884 16.418 42.0782 16.4961C41.8829 16.6328 41.7462 16.7109 41.668 16.7305C41.6094 16.75 41.5411 16.7793 41.463 16.8184C41.2677 16.7402 41.0626 16.7012 40.8477 16.7012C40.6329 16.7012 40.418 16.6719 40.2032 16.6133C40.086 16.6523 39.9688 16.6719 39.8516 16.6719C39.754 16.6719 39.6466 16.6914 39.5294 16.7305C39.4512 16.8867 39.4122 17.0625 39.4122 17.2578C39.4122 17.4531 39.3829 17.6289 39.3243 17.7852L39.1485 18.1367C39.129 18.2344 39.1094 18.332 39.0899 18.4297C39.0899 18.5078 39.0704 18.5957 39.0313 18.6934C38.9923 18.752 38.9434 18.8203 38.8848 18.8984C38.8458 18.9766 38.8262 19.0645 38.8262 19.1621C38.6895 19.3184 38.5919 19.5039 38.5333 19.7188C38.4747 19.9141 38.3673 20.0801 38.211 20.2168C38.1524 20.4121 38.0548 20.5684 37.918 20.6855C37.8009 20.8027 37.6837 20.9395 37.5665 21.0957C37.3516 21.3887 37.1563 21.6426 36.9805 21.8574C36.8243 22.0723 36.6094 22.2578 36.336 22.4141C36.2384 22.5703 36.1212 22.6777 35.9844 22.7363C35.8673 22.8535 35.7891 22.9512 35.7501 23.0293C35.5743 23.127 35.379 23.2441 35.1641 23.3809C34.9493 23.5176 34.7247 23.6152 34.4903 23.6738C34.1583 23.752 33.836 23.7422 33.5235 23.6445C33.211 23.5469 32.918 23.4102 32.6446 23.2344C32.4688 23.2539 32.3223 23.2148 32.2052 23.1172C32.1075 23.0391 31.9805 22.9805 31.8243 22.9414C31.6094 22.7461 31.3751 22.5703 31.1212 22.4141C30.8673 22.2578 30.6817 22.043 30.5645 21.7695C30.5255 21.5547 30.4864 21.3398 30.4473 21.125C30.3887 20.9102 30.3399 20.7148 30.3009 20.5391C30.2618 20.3633 30.2618 20.1777 30.3009 19.9824C30.3204 19.7871 30.3204 19.5918 30.3009 19.3965C30.3009 19.1816 30.3009 19.0059 30.3009 18.8691C30.2813 18.7129 30.3204 18.5273 30.418 18.3125C30.5352 18.0586 30.6134 17.8535 30.6524 17.6973C30.6915 17.5215 30.7305 17.375 30.7696 17.2578C30.8282 17.1602 30.8868 17.0527 30.9454 16.9355C31.004 16.8184 31.0723 16.7109 31.1505 16.6133C31.2677 16.4375 31.4044 16.2617 31.5606 16.0859C31.7169 15.9102 31.8731 15.7441 32.0294 15.5879C32.1466 15.4316 32.254 15.3047 32.3516 15.207C32.5079 15.0508 32.6739 14.9043 32.8497 14.7676C33.0255 14.6309 33.2012 14.4746 33.377 14.2988C33.4161 14.2402 33.4649 14.1914 33.5235 14.1523C33.5821 14.1133 33.6407 14.0742 33.6993 14.0352C33.8946 13.918 34.0704 13.8203 34.2266 13.7422C34.4024 13.6641 34.5977 13.5762 34.8126 13.4785C34.9688 13.4004 35.1153 13.3516 35.252 13.332C35.4083 13.293 35.5841 13.2539 35.7794 13.2148C35.9161 13.2148 36.0333 13.2148 36.1309 13.2148C36.2286 13.2148 36.3262 13.1953 36.4239 13.1562C36.3653 13 36.4337 12.8926 36.629 12.834C36.8243 12.7754 36.9708 12.7559 37.0684 12.7754C37.2637 12.7754 37.42 12.8242 37.5372 12.9219C37.6544 13 37.7618 13.0977 37.8594 13.2148C38.0743 13.3711 38.2891 13.5762 38.504 13.8301C38.543 13.8691 38.5919 13.8984 38.6505 13.918C38.7091 13.9375 38.7579 13.9668 38.7969 14.0059C38.8751 14.1035 38.9239 14.2109 38.9434 14.3281C38.9825 14.4453 39.0509 14.5527 39.1485 14.6504C39.2071 14.6895 39.2657 14.7383 39.3243 14.7969C39.3829 14.8555 39.4219 14.9336 39.4415 15.0312C39.5391 15.0703 39.627 15.1094 39.7052 15.1484C39.8028 15.168 39.9005 15.1875 39.9981 15.207C40.0958 15.2461 40.1934 15.2559 40.2911 15.2363C40.4083 15.2168 40.5352 15.2168 40.6719 15.2363C40.7696 15.2559 40.8575 15.2852 40.9356 15.3242C41.0137 15.3438 41.1016 15.3535 41.1993 15.3535C41.3555 15.334 41.5118 15.2949 41.668 15.2363C41.8438 15.1777 42.0391 15.168 42.254 15.207C42.5469 15.2852 42.8497 15.2559 43.1622 15.1191C43.4942 14.9824 43.8262 14.8945 44.1583 14.8555C44.2364 14.8555 44.3048 14.8555 44.3634 14.8555C44.4219 14.8359 44.4903 14.8262 44.5684 14.8262C44.6661 14.748 44.793 14.6895 44.9493 14.6504C45.1055 14.6113 45.2716 14.5723 45.4473 14.5332ZM37.0684 15.4121C36.8731 15.2363 36.7559 15.1289 36.7169 15.0898C36.6973 15.0312 36.668 14.9922 36.629 14.9727C36.5509 14.8945 36.4532 14.8457 36.336 14.8262C36.2188 14.8066 36.1114 14.7871 36.0137 14.7676C35.7012 14.709 35.4376 14.748 35.2227 14.8848C35.0274 15.002 34.8321 15.1191 34.6368 15.2363C34.3243 15.4316 34.0509 15.6758 33.8165 15.9688C33.7579 16.0664 33.6895 16.1738 33.6114 16.291C33.5528 16.4082 33.504 16.5352 33.4649 16.6719C33.3868 16.8281 33.3184 16.9746 33.2598 17.1113C33.2012 17.2285 33.1524 17.375 33.1134 17.5508C33.0157 17.7461 32.9571 17.9121 32.9376 18.0488C32.918 18.166 32.8985 18.2734 32.879 18.3711C32.8594 18.5664 32.8204 18.7715 32.7618 18.9863C32.7227 19.2012 32.7032 19.3867 32.7032 19.543C32.7227 19.6016 32.752 19.6797 32.7911 19.7773C32.8302 19.875 32.8692 19.9434 32.9083 19.9824C32.9473 20.0801 32.9864 20.1875 33.0255 20.3047C33.0841 20.4219 33.1329 20.5098 33.1719 20.5684C33.2696 20.7051 33.3966 20.793 33.5528 20.832C33.7091 20.8711 33.8848 20.9199 34.0802 20.9785C34.295 21.0957 34.4415 21.1445 34.5196 21.125C34.5977 21.1055 34.6563 21.0957 34.6954 21.0957C34.9493 21.0566 35.1739 20.9492 35.3692 20.7734C35.5645 20.5977 35.7598 20.4609 35.9552 20.3633C36.1114 20.1289 36.2774 19.8848 36.4532 19.6309C36.6485 19.3574 36.8243 19.084 36.9805 18.8105C37.0391 18.7324 37.088 18.6445 37.127 18.5469C37.1661 18.4492 37.2052 18.3613 37.2442 18.2832C37.3809 18.127 37.4395 18.0391 37.42 18.0195C37.42 18 37.4298 17.9707 37.4493 17.9316C37.586 17.6387 37.6446 17.4141 37.6251 17.2578C37.6055 17.1016 37.6055 16.9453 37.6251 16.7891C37.5274 16.5742 37.4395 16.3398 37.3614 16.0859C37.3028 15.832 37.2052 15.6074 37.0684 15.4121ZM69.5364 16.2617C69.7317 16.4961 69.8196 16.6621 69.8001 16.7598C69.8001 16.8574 69.8001 16.9648 69.8001 17.082C69.7024 17.1992 69.6243 17.3262 69.5657 17.4629C69.5071 17.5801 69.4192 17.6875 69.302 17.7852C69.2044 17.8633 69.0969 17.9219 68.9798 17.9609C68.8821 17.9805 68.7942 18.0391 68.7161 18.1367C68.5989 18.1758 68.5012 18.2246 68.4231 18.2832C68.345 18.3418 68.2278 18.3613 68.0716 18.3418C67.6028 18.8105 67.1829 19.1914 66.8118 19.4844C66.4602 19.7773 66.0891 20.0605 65.6985 20.334C65.4055 20.5879 65.093 20.8223 64.761 21.0371C64.4485 21.252 64.1262 21.4668 63.7942 21.6816C63.6966 21.7793 63.6087 21.877 63.5305 21.9746C63.4524 22.0527 63.3548 22.1211 63.2376 22.1797C63.0032 22.4141 62.7591 22.6289 62.5051 22.8242C62.2708 23 62.0462 23.1855 61.8313 23.3809C61.6165 23.5371 61.3821 23.6445 61.1282 23.7031C60.8938 23.7617 60.6692 23.8398 60.4544 23.9375C60.0833 24.0938 59.8001 24.123 59.6048 24.0254C59.3899 24.0645 59.2044 24.0938 59.0481 24.1133C58.9114 24.1523 58.7356 24.1426 58.5208 24.084C58.4622 24.0645 58.4036 24.0352 58.345 23.9961C58.2864 23.957 58.218 23.918 58.1399 23.8789C57.9446 23.8008 57.7884 23.7129 57.6712 23.6152C57.5735 23.5371 57.4856 23.459 57.4075 23.3809C57.3489 23.3223 57.2805 23.2344 57.2024 23.1172C57.1243 23.0195 57.0657 22.9316 57.0266 22.8535C56.929 22.6973 56.8704 22.5117 56.8509 22.2969C56.8118 22.0625 56.763 21.8379 56.7044 21.623C56.6653 21.4082 56.6067 21.1934 56.5286 20.9785C56.4505 20.7637 56.4212 20.5391 56.4407 20.3047C56.4602 20.1484 56.4993 20.002 56.5579 19.8652C56.5969 19.709 56.636 19.5527 56.6751 19.3965C56.7923 19.123 56.8899 18.8691 56.968 18.6348C57.0462 18.4004 57.1341 18.1758 57.2317 17.9609C57.2903 17.8633 57.3489 17.7852 57.4075 17.7266C57.4856 17.668 57.554 17.5898 57.6126 17.4922C57.6516 17.4531 57.6712 17.3945 57.6712 17.3164C57.6907 17.2383 57.72 17.1699 57.7591 17.1113C57.9153 16.9355 58.0813 16.7598 58.2571 16.584C58.4329 16.3887 58.5891 16.1836 58.7259 15.9688C58.8235 15.832 58.9212 15.7148 59.0188 15.6172C59.136 15.5 59.2434 15.373 59.3411 15.2363C59.4583 15.0801 59.5364 14.9922 59.5755 14.9727C59.6341 14.9336 59.6829 14.8848 59.7219 14.8262C59.8391 14.709 59.9466 14.5918 60.0442 14.4746C60.1419 14.3379 60.2395 14.2012 60.3372 14.0645C60.4739 13.9277 60.6106 13.7812 60.7473 13.625C60.9036 13.4688 61.0598 13.3418 61.2161 13.2441C61.3919 13.1465 61.5676 13.0586 61.7434 12.9805C61.9387 12.9023 62.1438 12.8145 62.3587 12.7168C62.4563 12.6777 62.5442 12.6289 62.6223 12.5703C62.72 12.5117 62.8176 12.4629 62.9153 12.4238C63.0325 12.3848 63.1399 12.3555 63.2376 12.3359C63.3352 12.3164 63.4231 12.2676 63.5012 12.1895C63.6184 12.209 63.7259 12.1895 63.8235 12.1309C63.9212 12.0723 64.0188 12.0234 64.1165 11.9844C64.2141 11.9648 64.302 11.9648 64.3801 11.9844C64.4778 12.0039 64.5559 11.9844 64.6145 11.9258C64.6731 11.9648 64.7317 11.9844 64.7903 11.9844C64.8684 11.9844 64.927 12.0039 64.9661 12.043C65.0442 12.0625 65.1126 12.1113 65.1712 12.1895C65.2493 12.2676 65.2981 12.3555 65.3176 12.4531C65.3567 12.7461 65.2786 13.0488 65.0833 13.3613C64.9075 13.6738 64.7512 13.9082 64.6145 14.0645C64.5169 14.2207 64.4094 14.3574 64.2923 14.4746C64.1751 14.5723 64.0384 14.6699 63.8821 14.7676C63.6477 14.7676 63.4036 14.7871 63.1497 14.8262C62.9153 14.8457 62.7005 14.8359 62.5051 14.7969C62.4661 14.875 62.4075 14.9336 62.3294 14.9727C62.2708 14.9922 62.261 15.041 62.3001 15.1191C61.636 15.6855 61.0501 16.291 60.5423 16.9355C60.0344 17.5605 59.6341 18.3027 59.3411 19.1621C59.2434 19.4941 59.1458 19.7383 59.0481 19.8945C58.9505 20.0312 58.9016 20.1777 58.9016 20.334C59.0188 20.7441 59.2141 21.0957 59.4876 21.3887C59.761 21.6621 60.0344 21.8184 60.3079 21.8574C60.6204 21.8965 60.8938 21.8379 61.1282 21.6816C61.3821 21.5254 61.6165 21.3887 61.8313 21.2715C62.1048 21.0762 62.3684 20.9004 62.6223 20.7441C62.8958 20.5879 63.179 20.4219 63.4719 20.2461C63.5501 20.207 63.6282 20.168 63.7063 20.1289C63.7844 20.0703 63.8626 20.0117 63.9407 19.9531C64.1946 19.7773 64.4192 19.6113 64.6145 19.4551C64.8294 19.2793 65.0442 19.1133 65.2591 18.957C65.3567 18.9375 65.4251 18.9082 65.4641 18.8691C65.5227 18.8105 65.6009 18.7812 65.6985 18.7812C66.0501 18.4688 66.4309 18.1953 66.8411 17.9609C67.2512 17.707 67.6809 17.4531 68.1301 17.1992C68.2669 17.0625 68.4036 16.9453 68.5403 16.8477C68.6966 16.7305 68.843 16.6035 68.9798 16.4668C69.1165 16.4668 69.2141 16.4375 69.2727 16.3789C69.3313 16.3008 69.4192 16.2617 69.5364 16.2617ZM91.6333 6.82812C91.8872 6.86719 92.102 6.89648 92.2778 6.91602C92.4536 6.93555 92.6098 6.95508 92.7466 6.97461C92.9028 6.97461 93.0591 6.97461 93.2153 6.97461C93.3716 6.95508 93.5669 6.92578 93.8012 6.88672C94.2309 6.82812 94.6118 6.7793 94.9438 6.74023C95.2954 6.68164 95.6762 6.63281 96.0864 6.59375C96.2036 6.57422 96.3208 6.57422 96.438 6.59375C96.5747 6.61328 96.7016 6.62305 96.8188 6.62305C97.0727 6.62305 97.3169 6.61328 97.5512 6.59375C97.8052 6.57422 98.0395 6.55469 98.2544 6.53516C98.3325 6.51563 98.4009 6.49609 98.4594 6.47656C98.518 6.45703 98.5766 6.45703 98.6352 6.47656C98.811 6.47656 98.9868 6.47656 99.1626 6.47656C99.3384 6.45703 99.4946 6.51563 99.6313 6.65234C99.6899 6.84766 99.7094 6.95508 99.6899 6.97461C99.6704 6.99414 99.6509 7.02344 99.6313 7.0625C99.6118 7.31641 99.5727 7.44336 99.5141 7.44336C99.4751 7.44336 99.4555 7.46289 99.4555 7.50195C99.2993 7.54102 99.1626 7.58008 99.0454 7.61914C98.9477 7.63867 98.8696 7.69727 98.811 7.79492C98.479 7.87305 98.1665 7.89258 97.8735 7.85352C97.6001 7.79492 97.3169 7.83398 97.0239 7.9707C96.8872 8.0293 96.7407 8.10742 96.5844 8.20508C96.4477 8.2832 96.2719 8.2832 96.0571 8.20508C95.8618 8.20508 95.6372 8.21484 95.3833 8.23438C95.1294 8.25391 94.8852 8.27344 94.6509 8.29297C94.2016 8.33203 93.811 8.37109 93.479 8.41016C93.1665 8.42969 92.8637 8.44922 92.5708 8.46875C92.2778 8.46875 91.9751 8.47852 91.6626 8.49805C91.3696 8.51758 91.0083 8.52734 90.5786 8.52734C90.4223 8.66406 90.3149 8.83008 90.2563 9.02539C90.2173 9.2207 90.1196 9.37695 89.9634 9.49414C89.8071 9.86523 89.6802 10.1191 89.5825 10.2559C89.4848 10.373 89.4165 10.5195 89.3774 10.6953C89.104 11.0469 88.8501 11.418 88.6157 11.8086C88.4009 12.1797 88.1469 12.5312 87.854 12.8633C87.8149 13.0781 87.7368 13.2734 87.6196 13.4492C87.5219 13.6055 87.4536 13.8203 87.4145 14.0938C87.1997 14.3867 87.0434 14.709 86.9458 15.0605C86.8481 15.4121 86.7212 15.7832 86.5649 16.1738C86.5259 16.3301 86.477 16.4863 86.4184 16.6426C86.3794 16.7793 86.3305 16.9258 86.2719 17.082C86.1938 17.2773 86.0962 17.4629 85.979 17.6387C85.8813 17.7949 85.7837 17.9707 85.686 18.166C85.6469 18.2051 85.6274 18.2637 85.6274 18.3418C85.6274 18.4004 85.6177 18.4492 85.5981 18.4883C85.5395 18.625 85.4809 18.752 85.4223 18.8691C85.3637 18.9668 85.3149 19.0645 85.2759 19.1621C85.2368 19.2598 85.2075 19.3672 85.188 19.4844C85.188 19.582 85.1684 19.6797 85.1294 19.7773C85.1098 19.8359 85.0903 19.8945 85.0708 19.9531C85.0512 19.9922 85.0317 20.041 85.0122 20.0996C84.9536 20.373 84.9536 20.5586 85.0122 20.6562C85.0708 20.7539 85.1196 20.8516 85.1587 20.9492C85.1977 21.0664 85.2368 21.1738 85.2759 21.2715C85.3149 21.3496 85.3442 21.4375 85.3637 21.5352C85.4614 21.5742 85.5493 21.6133 85.6274 21.6523C85.7251 21.6914 85.8227 21.7109 85.9204 21.7109C86.0376 21.7305 86.1645 21.6816 86.3012 21.5645C86.438 21.4277 86.5552 21.3496 86.6528 21.3301C86.7895 21.291 86.9165 21.2715 87.0337 21.2715C87.1704 21.2715 87.2876 21.2422 87.3852 21.1836C87.5024 21.0859 87.6001 20.9883 87.6782 20.8906C87.7563 20.793 87.8637 20.7246 88.0005 20.6855C88.313 20.6074 88.479 20.5488 88.4985 20.5098C88.518 20.4512 88.5864 20.373 88.7036 20.2754C88.8403 20.1777 88.9575 20.0898 89.0552 20.0117C89.1723 19.9141 89.3091 19.8164 89.4653 19.7188C89.6606 19.6211 89.768 19.5625 89.7876 19.543C89.8266 19.5234 89.9145 19.4551 90.0512 19.3379C90.2466 19.2402 90.4126 19.1328 90.5493 19.0156C90.686 18.8984 90.8423 18.791 91.018 18.6934C91.2134 18.6152 91.3305 18.5664 91.3696 18.5469C91.4087 18.5078 91.4282 18.4785 91.4282 18.459C91.4477 18.4395 91.4673 18.4102 91.4868 18.3711C91.5259 18.332 91.6235 18.2637 91.7798 18.166C91.8579 18.0098 91.9458 17.8828 92.0434 17.7852C92.1411 17.6875 92.2583 17.5605 92.395 17.4043C92.5122 17.2676 92.6294 17.1504 92.7466 17.0527C92.8833 16.9551 93.0005 16.8574 93.0981 16.7598C93.1567 16.7207 93.2055 16.6816 93.2446 16.6426C93.2837 16.584 93.352 16.5449 93.4497 16.5254C93.5669 16.4277 93.6548 16.3496 93.7134 16.291C93.7915 16.2129 93.9087 16.1055 94.0649 15.9688C94.104 15.9297 94.1528 15.8809 94.2114 15.8223C94.27 15.7637 94.3188 15.7246 94.3579 15.7051C94.436 15.7051 94.4946 15.7344 94.5337 15.793C94.5923 15.8516 94.6606 15.8809 94.7387 15.8809C94.7192 16.1348 94.7094 16.3008 94.7094 16.3789C94.7094 16.4375 94.6899 16.5059 94.6509 16.584C94.5337 16.7598 94.3969 16.8574 94.2407 16.877C94.104 16.8965 93.9966 17.0039 93.9184 17.1992C93.8598 17.1602 93.7817 17.1504 93.6841 17.1699C93.6059 17.1895 93.5473 17.2188 93.5083 17.2578C93.5473 17.3359 93.5669 17.4043 93.5669 17.4629C93.5669 17.5215 93.5766 17.5898 93.5962 17.668C93.2446 18.0195 93.0102 18.3027 92.893 18.5176C92.6587 18.7715 92.5317 18.918 92.5122 18.957C92.4927 18.9766 92.4829 18.9863 92.4829 18.9863C92.4829 18.9863 92.4731 18.9961 92.4536 19.0156C92.4341 19.0352 92.3657 19.1035 92.2485 19.2207C91.9751 19.4355 91.77 19.6406 91.6333 19.8359C91.4966 20.0312 91.2915 20.207 91.018 20.3633C90.8032 20.5195 90.6567 20.6367 90.5786 20.7148C90.5005 20.793 90.3833 20.9004 90.227 21.0371C90.1489 21.1152 90.0708 21.2031 89.9927 21.3008C89.9341 21.3789 89.8559 21.457 89.7583 21.5352C89.6216 21.6328 89.4848 21.7207 89.3481 21.7988C89.2309 21.877 89.1235 21.9746 89.0259 22.0918C88.7329 22.2285 88.518 22.3848 88.3813 22.5605C88.2641 22.7363 88.0786 22.9023 87.8247 23.0586C87.6489 23.1758 87.4048 23.3223 87.0923 23.498C86.7993 23.6738 86.5454 23.8008 86.3305 23.8789C86.2719 23.8984 86.2134 23.918 86.1548 23.9375C86.1157 23.957 86.0669 23.9766 86.0083 23.9961C85.852 23.8984 85.6958 23.8008 85.5395 23.7031C85.4028 23.6055 85.2856 23.4688 85.188 23.293C85.0122 23.1562 84.8657 23.0586 84.7485 23C84.6509 22.9414 84.5532 22.8633 84.4555 22.7656C84.2602 22.4336 84.0356 22.1016 83.7817 21.7695C83.5473 21.4375 83.3618 21.0664 83.2251 20.6562C83.186 20.5781 83.1567 20.5 83.1372 20.4219C83.1372 20.3242 83.1274 20.2266 83.1079 20.1289C83.0688 19.9727 83.0298 19.8359 82.9907 19.7188C82.9516 19.6016 82.9419 19.4551 82.9614 19.2793C82.9614 19.1621 82.9809 19.0352 83.02 18.8984C83.0591 18.7617 83.0981 18.6152 83.1372 18.459C83.2153 18.2051 83.3032 17.9609 83.4009 17.7266C83.518 17.4922 83.6059 17.2383 83.6645 16.9648C83.7231 16.75 83.7817 16.5547 83.8403 16.3789C83.8989 16.2031 83.9673 16.0078 84.0454 15.793C84.0844 15.6953 84.104 15.6074 84.104 15.5293C84.1235 15.4316 84.1821 15.3633 84.2798 15.3242C84.3579 14.9336 84.4848 14.5625 84.6606 14.2109C84.8364 13.8398 85.0122 13.4883 85.188 13.1562C85.4028 12.7461 85.5981 12.3262 85.7739 11.8965C85.9692 11.4668 86.1743 11.0469 86.3891 10.6367C86.4087 10.4023 86.4868 10.207 86.6235 10.0508C86.643 9.83594 86.7212 9.63086 86.8579 9.43555C86.9946 9.2207 87.0923 9.00586 87.1509 8.79102C86.936 8.73242 86.6919 8.73242 86.4184 8.79102C86.1645 8.83008 85.9399 8.86914 85.7446 8.9082C85.393 8.92773 85.0219 8.92773 84.6313 8.9082C84.4946 8.88867 84.3579 8.86914 84.2212 8.84961C84.104 8.81055 83.9868 8.79102 83.8696 8.79102C83.6938 8.81055 83.5571 8.80078 83.4594 8.76172C83.3813 8.70312 83.2934 8.69336 83.1958 8.73242C82.9419 8.51758 82.7563 8.37109 82.6391 8.29297C82.5219 8.21484 82.4145 8.14648 82.3169 8.08789C82.1997 8.00977 82.102 7.93164 82.0239 7.85352C81.9262 7.75586 81.8481 7.61914 81.7895 7.44336C81.7895 7.38477 81.8188 7.33594 81.8774 7.29688C81.936 7.25781 81.9848 7.21875 82.0239 7.17969C82.1802 7.14062 82.3559 7.13086 82.5512 7.15039C82.7466 7.15039 82.9028 7.11133 83.02 7.0332C83.3325 7.07227 83.6157 7.05273 83.8696 6.97461C84.143 6.89648 84.4262 6.86719 84.7192 6.88672C84.7778 6.88672 84.8364 6.89648 84.895 6.91602C84.9536 6.93555 85.0122 6.94531 85.0708 6.94531C85.1684 6.96484 85.2466 6.96484 85.3052 6.94531C85.3833 6.92578 85.4712 6.90625 85.5688 6.88672C85.686 6.86719 85.813 6.86719 85.9497 6.88672C86.0864 6.90625 86.2231 6.90625 86.3598 6.88672C86.6137 6.86719 86.9165 6.89648 87.268 6.97461C87.6391 7.0332 87.9614 7.01367 88.2348 6.91602C88.3325 6.64258 88.4399 6.36914 88.5571 6.0957C88.6938 5.80273 88.8012 5.51953 88.8794 5.24609C88.9575 5.12891 89.0356 5.00195 89.1137 4.86523C89.1919 4.70898 89.2505 4.5625 89.2895 4.42578C89.4067 4.23047 89.4946 4.07422 89.5532 3.95703C89.6313 3.83984 89.7192 3.72266 89.8169 3.60547C89.9536 3.33203 90.0512 3.06836 90.1098 2.81445C90.188 2.54102 90.2856 2.24805 90.4028 1.93555C90.6567 1.66211 90.9106 1.33008 91.1645 0.939453C91.3012 0.958984 91.4087 0.919922 91.4868 0.822266C91.5844 0.724609 91.7212 0.734375 91.8969 0.851562C91.8969 0.910156 91.9165 0.96875 91.9555 1.02734C92.0141 1.06641 92.0239 1.13477 91.9848 1.23242C92.0825 1.33008 92.1606 1.41797 92.2192 1.49609C92.2778 1.57422 92.3266 1.66211 92.3657 1.75977C92.4048 1.91602 92.3852 2.10156 92.3071 2.31641C92.2485 2.51172 92.268 2.69727 92.3657 2.87305C92.4048 2.9707 92.4145 3.06836 92.395 3.16602C92.3755 3.24414 92.3852 3.32227 92.4243 3.40039C92.4634 3.49805 92.5122 3.5957 92.5708 3.69336C92.6489 3.79102 92.688 3.91797 92.688 4.07422C92.688 4.13281 92.6684 4.21094 92.6294 4.30859C92.6098 4.38672 92.5805 4.47461 92.5415 4.57227C92.4634 4.86523 92.4048 5.07031 92.3657 5.1875C92.3266 5.30469 92.2876 5.43164 92.2485 5.56836C92.1118 5.72461 92.0434 5.83203 92.0434 5.89062C92.0434 5.92969 92.0337 5.96875 92.0141 6.00781C91.9555 6.125 91.8872 6.27148 91.8091 6.44727C91.7505 6.60352 91.6919 6.73047 91.6333 6.82812ZM116.103 15.0898C116.123 15.1484 116.103 15.2656 116.045 15.4414C115.947 15.5586 115.888 15.6855 115.869 15.8223C115.83 15.9004 115.791 15.9688 115.752 16.0273C115.732 16.0859 115.713 16.1641 115.693 16.2617C115.654 16.3789 115.634 16.5156 115.634 16.6719C115.654 16.8281 115.654 16.9746 115.634 17.1113C115.595 17.3262 115.566 17.541 115.547 17.7559C115.527 17.9512 115.507 18.1562 115.488 18.3711C115.488 18.5859 115.468 18.8301 115.429 19.1035C115.39 19.377 115.351 19.6211 115.312 19.8359C115.39 19.9727 115.439 20.1191 115.459 20.2754C115.478 20.4316 115.547 20.5586 115.664 20.6562C116.054 20.5977 116.367 20.5098 116.601 20.3926C116.836 20.2559 117.06 20.0703 117.275 19.8359C117.451 19.7578 117.568 19.6895 117.627 19.6309C117.705 19.5723 117.822 19.4941 117.978 19.3965C118.017 19.3574 118.056 19.3184 118.095 19.2793C118.134 19.2402 118.174 19.2012 118.213 19.1621C118.427 19.0449 118.554 18.9668 118.593 18.9277C118.652 18.8887 118.72 18.8496 118.799 18.8105C119.131 18.5957 119.384 18.3711 119.56 18.1367C119.736 18 119.853 17.8828 119.912 17.7852C119.99 17.668 120.146 17.5605 120.381 17.4629C120.517 17.3066 120.654 17.1797 120.791 17.082C120.947 16.9648 121.093 16.8281 121.23 16.6719C121.328 16.6719 121.406 16.6914 121.465 16.7305C121.523 16.7695 121.591 16.8086 121.67 16.8477C121.728 17.0039 121.738 17.1699 121.699 17.3457C121.66 17.502 121.591 17.6484 121.494 17.7852C121.396 17.9219 121.347 18 121.347 18.0195C121.347 18.0391 121.338 18.0586 121.318 18.0781C121.259 18.1562 121.181 18.2344 121.084 18.3125C121.006 18.3711 120.937 18.4395 120.879 18.5176C120.781 18.6934 120.703 18.7812 120.644 18.7812C120.586 18.7812 120.537 18.8008 120.498 18.8398C120.322 18.9375 120.195 19.0156 120.117 19.0742C120.058 19.1328 119.951 19.2109 119.795 19.3086C119.58 19.4258 119.453 19.5039 119.414 19.543C119.375 19.582 119.336 19.6113 119.297 19.6309C119.043 19.9043 118.808 20.1289 118.593 20.3047C118.398 20.4609 118.183 20.6758 117.949 20.9492C117.871 21.0078 117.793 21.0664 117.715 21.125C117.636 21.1836 117.568 21.2617 117.509 21.3594C117.334 21.4766 117.187 21.5938 117.07 21.7109C116.972 21.8281 116.855 21.9648 116.718 22.1211C116.601 22.1797 116.474 22.2676 116.338 22.3848C116.201 22.4824 116.054 22.5703 115.898 22.6484C115.82 22.6875 115.732 22.7363 115.634 22.7949C115.556 22.834 115.468 22.8535 115.371 22.8535C115.136 22.8926 114.922 22.873 114.726 22.7949C114.531 22.7168 114.345 22.6582 114.17 22.6191C114.091 22.502 113.994 22.4043 113.877 22.3262C113.701 22.1113 113.574 21.8574 113.496 21.5645C113.418 21.2715 113.34 20.959 113.261 20.627C113.105 20.7246 112.959 20.8516 112.822 21.0078C112.685 21.1641 112.509 21.291 112.295 21.3887C111.904 21.7598 111.484 22.1211 111.035 22.4727C110.605 22.8047 110.166 23.1562 109.716 23.5273C109.658 23.5859 109.599 23.6348 109.541 23.6738C109.482 23.7129 109.433 23.7227 109.394 23.7031C109.297 23.8203 109.16 23.8887 108.984 23.9082C108.828 23.9473 108.652 23.9473 108.457 23.9082C108.261 23.8105 108.086 23.7422 107.929 23.7031C107.773 23.6641 107.617 23.6055 107.461 23.5273C107.129 23.4688 106.855 23.3223 106.64 23.0879C106.406 22.8535 106.211 22.5801 106.054 22.2676C105.996 22.1113 105.957 21.9648 105.937 21.8281C105.898 21.6914 105.859 21.5352 105.82 21.3594C105.8 21.2031 105.771 21.0762 105.732 20.9785C105.693 20.8613 105.693 20.7539 105.732 20.6562C105.693 20.5977 105.683 20.5391 105.703 20.4805C105.722 20.4023 105.732 20.3242 105.732 20.2461C105.713 19.9727 105.742 19.6797 105.82 19.3672C105.879 19.0547 105.966 18.7715 106.084 18.5176C106.123 18.4395 106.201 18.3418 106.318 18.2246C106.357 18.166 106.386 18.1074 106.406 18.0488C106.425 17.9902 106.455 17.9414 106.494 17.9023C106.533 17.8438 106.591 17.7852 106.67 17.7266C106.748 17.668 106.816 17.6094 106.875 17.5508C106.972 17.4141 107.08 17.2969 107.197 17.1992C107.334 17.082 107.461 16.9648 107.578 16.8477C107.636 16.7891 107.685 16.7207 107.724 16.6426C107.783 16.5645 107.861 16.5059 107.959 16.4668C108.037 16.3301 108.125 16.2227 108.222 16.1445C108.32 16.0469 108.427 15.9492 108.545 15.8516C108.877 15.4414 109.287 15.0996 109.775 14.8262C110.263 14.5527 110.703 14.2402 111.093 13.8887C111.23 13.8301 111.347 13.7617 111.445 13.6836C111.543 13.6055 111.64 13.5273 111.738 13.4492C111.992 13.2344 112.256 13.166 112.529 13.2441C112.802 13.3223 113.056 13.3906 113.291 13.4492C113.486 13.625 113.672 13.8008 113.847 13.9766C114.043 14.1523 114.209 14.3477 114.345 14.5625C114.482 14.543 114.638 14.543 114.814 14.5625C114.99 14.5625 115.175 14.543 115.371 14.5039C115.429 14.5039 115.488 14.4941 115.547 14.4746C115.605 14.4355 115.654 14.416 115.693 14.416C115.986 14.5137 116.132 14.6602 116.132 14.8555L116.103 15.0898ZM112.265 15.2949C111.738 15.5488 111.259 15.8516 110.83 16.2031C110.4 16.5352 109.99 16.8965 109.599 17.2871C109.502 17.3848 109.394 17.4824 109.277 17.5801C109.179 17.6582 109.091 17.7461 109.013 17.8438C108.935 17.9414 108.857 18.0586 108.779 18.1953C108.72 18.332 108.662 18.459 108.603 18.5762C108.564 18.6543 108.525 18.7227 108.486 18.7812C108.447 18.8203 108.408 18.8691 108.369 18.9277C108.33 19.0254 108.31 19.123 108.31 19.2207C108.33 19.3184 108.34 19.4258 108.34 19.543C108.34 19.6406 108.34 19.7383 108.34 19.8359C108.34 19.9336 108.349 20.0312 108.369 20.1289C108.427 20.3438 108.457 20.5586 108.457 20.7734C108.457 20.9297 108.466 21.125 108.486 21.3594C108.525 21.5742 108.603 21.7207 108.72 21.7988C108.838 21.877 108.955 21.8965 109.072 21.8574C109.209 21.8184 109.326 21.7891 109.424 21.7695C110.107 21.2422 110.752 20.6953 111.357 20.1289C111.963 19.543 112.5 18.8887 112.968 18.166C112.929 17.6582 112.92 17.1699 112.939 16.7012C112.978 16.2129 112.939 15.7637 112.822 15.3535C112.744 15.3145 112.646 15.3047 112.529 15.3242C112.431 15.3242 112.343 15.3145 112.265 15.2949ZM141.393 8.41016C141.432 8.46875 141.452 8.52734 141.452 8.58594C141.452 8.64453 141.481 8.69336 141.54 8.73242C141.501 8.9082 141.462 9.09375 141.423 9.28906C141.403 9.46484 141.393 9.64062 141.393 9.81641C141.393 9.89453 141.413 9.96289 141.452 10.0215C141.511 10.0801 141.54 10.1387 141.54 10.1973C141.442 10.4316 141.364 10.5684 141.306 10.6074C141.266 10.6465 141.247 10.6953 141.247 10.7539C141.149 10.793 141.071 10.8516 141.013 10.9297C140.974 11.0078 140.895 11.0469 140.778 11.0469C140.739 11.1055 140.69 11.1543 140.632 11.1934C140.593 11.2129 140.563 11.2617 140.544 11.3398C140.231 11.4766 139.88 11.4668 139.489 11.3105C139.391 11.1348 139.255 11.0078 139.079 10.9297C138.825 10.5586 138.815 10.1191 139.05 9.61133C139.089 9.51367 139.128 9.41602 139.167 9.31836C139.225 9.20117 139.274 9.12305 139.313 9.08398C139.528 8.92773 139.684 8.83008 139.782 8.79102C139.86 8.75195 139.938 8.70312 140.016 8.64453C140.114 8.58594 140.222 8.53711 140.339 8.49805C140.378 8.47852 140.427 8.46875 140.485 8.46875C140.563 8.46875 140.641 8.44922 140.72 8.41016C140.798 8.39062 140.866 8.37109 140.925 8.35156C140.983 8.33203 141.042 8.32227 141.1 8.32227L141.393 8.41016ZM136.852 21.3594C137.028 21.2812 137.243 21.252 137.497 21.2715C137.751 21.291 137.956 21.252 138.112 21.1543C138.19 21.0957 138.259 21.0371 138.317 20.9785C138.376 20.9199 138.444 20.9004 138.522 20.9199C138.835 20.8027 139.099 20.6855 139.313 20.5684C139.528 20.4512 139.763 20.3633 140.016 20.3047C140.075 20.2852 140.143 20.2461 140.222 20.1875C140.319 20.1289 140.388 20.0801 140.427 20.041C140.739 19.9434 140.964 19.8457 141.1 19.748C141.237 19.6504 141.364 19.5527 141.481 19.4551C141.618 19.3574 141.745 19.2598 141.862 19.1621C141.999 19.0449 142.165 18.9082 142.36 18.752C142.634 18.5957 142.858 18.459 143.034 18.3418C143.229 18.2246 143.434 18.0781 143.649 17.9023C143.688 17.8047 143.737 17.7363 143.796 17.6973C143.874 17.6387 143.932 17.5703 143.972 17.4922C144.323 17.4922 144.518 17.6289 144.557 17.9023C144.46 18.1172 144.323 18.293 144.147 18.4297C143.991 18.5664 143.845 18.7227 143.708 18.8984C143.552 18.9961 143.425 19.084 143.327 19.1621C143.229 19.2402 143.132 19.3574 143.034 19.5137C143.015 19.5137 142.956 19.5625 142.858 19.6602C142.761 19.7383 142.702 19.7773 142.682 19.7773C142.565 19.9141 142.477 20.002 142.419 20.041C142.38 20.0801 142.341 20.1094 142.302 20.1289C142.282 20.1289 142.243 20.1484 142.184 20.1875C142.145 20.2266 142.057 20.3047 141.921 20.4219C141.784 20.6367 141.608 20.8125 141.393 20.9492C140.983 21.3398 140.534 21.6816 140.046 21.9746C139.577 22.248 139.147 22.5215 138.757 22.7949C138.679 22.834 138.61 22.8926 138.552 22.9707C138.493 23.0293 138.425 23.0879 138.347 23.1465C138.249 23.2246 138.093 23.3027 137.878 23.3809C137.682 23.459 137.507 23.5273 137.35 23.5859C137.233 23.6641 137.126 23.7227 137.028 23.7617C136.599 23.7812 136.266 23.7129 136.032 23.5566C135.778 23.4199 135.583 23.3125 135.446 23.2344C135.309 23.1562 135.192 23.0293 135.095 22.8535C134.88 22.7559 134.743 22.5801 134.684 22.3262C134.645 22.0527 134.597 21.7891 134.538 21.5352C134.518 21.4375 134.499 21.3301 134.479 21.2129C134.46 21.0762 134.46 20.9395 134.479 20.8027C134.518 20.5879 134.548 20.3633 134.567 20.1289C134.587 19.875 134.636 19.6602 134.714 19.4844C134.811 19.2695 134.86 19.0547 134.86 18.8398C134.88 18.625 134.938 18.4102 135.036 18.1953C135.153 18 135.202 17.8926 135.182 17.873C135.182 17.8535 135.192 17.8242 135.212 17.7852C135.251 17.7266 135.29 17.668 135.329 17.6094C135.388 17.5508 135.436 17.4824 135.475 17.4043L135.651 16.9648C135.729 16.8281 135.817 16.6914 135.915 16.5547C136.013 16.418 136.091 16.252 136.149 16.0566C136.188 15.9395 136.237 15.832 136.296 15.7344C136.374 15.6367 136.452 15.5293 136.53 15.4121C136.589 15.2949 136.638 15.1777 136.677 15.0605C136.716 14.9238 136.765 14.7871 136.823 14.6504C136.882 14.4941 136.95 14.3379 137.028 14.1816C137.126 14.0254 137.224 13.8691 137.321 13.7129C137.399 13.5566 137.468 13.4395 137.526 13.3613C137.585 13.2832 137.702 13.2344 137.878 13.2148C137.956 13.1953 138.044 13.2051 138.141 13.2441C138.239 13.2637 138.337 13.2539 138.434 13.2148C138.688 13.0977 138.864 13.0391 138.962 13.0391C139.059 13.0391 139.128 13.0098 139.167 12.9512C139.382 12.9707 139.538 13.0391 139.636 13.1562C139.733 13.2734 139.85 13.3906 139.987 13.5078C139.87 14.0742 139.733 14.5137 139.577 14.8262C139.44 15.1191 139.284 15.4316 139.108 15.7637C139.011 15.9199 138.913 16.0957 138.815 16.291C138.718 16.4863 138.63 16.6621 138.552 16.8184C138.454 17.0332 138.347 17.2285 138.229 17.4043C138.132 17.5605 138.044 17.7461 137.966 17.9609C137.927 18.0586 137.878 18.1562 137.819 18.2539C137.78 18.332 137.741 18.4199 137.702 18.5176C137.663 18.6543 137.604 18.7812 137.526 18.8984C137.468 18.9961 137.409 19.0938 137.35 19.1914C137.292 19.3086 137.233 19.4258 137.175 19.543C137.116 19.6602 137.067 19.7871 137.028 19.9238C136.931 20.1582 136.872 20.3047 136.852 20.3633C136.833 20.4023 136.813 20.4414 136.794 20.4805C136.755 20.6953 136.696 20.8711 136.618 21.0078C136.54 21.1445 136.569 21.2422 136.706 21.3008L136.852 21.3594ZM167.182 16.0859C167.397 16.1445 167.533 16.2129 167.592 16.291C167.67 16.3691 167.709 16.4473 167.709 16.5254C167.553 16.7402 167.455 16.8867 167.416 16.9648C167.397 17.0234 167.338 17.0723 167.24 17.1113C166.986 17.502 166.693 17.8535 166.361 18.166C166.049 18.459 165.756 18.791 165.482 19.1621C165.385 19.2598 165.297 19.3574 165.219 19.4551C165.141 19.5527 165.053 19.6504 164.955 19.748C164.74 19.9043 164.545 20.0801 164.369 20.2754C164.193 20.4512 164.008 20.6172 163.813 20.7734C163.715 20.8516 163.617 20.9297 163.52 21.0078C163.441 21.0664 163.354 21.1445 163.256 21.2422C163.158 21.3398 163.07 21.418 162.992 21.4766C162.914 21.5352 162.826 21.6035 162.729 21.6816C162.611 21.8184 162.494 21.9551 162.377 22.0918C162.26 22.2285 162.143 22.375 162.025 22.5312C161.811 22.6289 161.615 22.7461 161.44 22.8828C161.264 23.0195 161.059 23.1367 160.824 23.2344C160.727 23.293 160.629 23.3809 160.531 23.498C160.453 23.6348 160.346 23.7227 160.209 23.7617C160.053 23.8203 159.887 23.8301 159.711 23.791C159.535 23.7715 159.389 23.7324 159.272 23.6738C159.174 23.5957 159.096 23.5469 159.037 23.5273C158.979 23.5078 158.93 23.498 158.891 23.498C158.715 23.2441 158.588 22.9707 158.51 22.6777C158.432 22.3652 158.344 22.043 158.246 21.7109C158.207 21.6133 158.178 21.5156 158.158 21.418C158.139 21.3008 158.119 21.1738 158.1 21.0371C158.08 20.959 158.061 20.8809 158.041 20.8027C158.041 20.7246 158.022 20.6367 157.982 20.5391C157.943 20.4414 157.904 20.3438 157.865 20.2461C157.826 20.1289 157.797 20.0117 157.777 19.8945C157.738 19.6602 157.729 19.4355 157.748 19.2207C157.748 18.9863 157.768 18.7617 157.807 18.5469C157.924 17.9023 158.09 17.2871 158.305 16.7012C158.539 16.1152 158.774 15.5586 159.008 15.0312C159.047 14.8164 159.096 14.6309 159.154 14.4746C159.232 14.3184 159.301 14.1426 159.359 13.9473C159.457 13.8105 159.525 13.6543 159.565 13.4785C159.604 13.3027 159.652 13.127 159.711 12.9512C159.77 12.7949 159.838 12.6289 159.916 12.4531C160.014 12.2578 160.082 12.0723 160.121 11.8965C160.18 11.7012 160.229 11.5059 160.268 11.3105C160.326 11.1152 160.395 10.9395 160.473 10.7832C160.629 10.373 160.775 9.98242 160.912 9.61133C161.049 9.24023 161.195 8.86914 161.352 8.49805C161.391 8.38086 161.43 8.26367 161.469 8.14648C161.508 8.0293 161.566 7.92188 161.645 7.82422C161.684 7.70703 161.732 7.60937 161.791 7.53125C161.85 7.43359 161.908 7.33594 161.967 7.23828C161.967 7.14062 161.996 7.07227 162.055 7.0332C162.133 6.97461 162.191 6.90625 162.231 6.82812C162.328 6.67187 162.397 6.51563 162.436 6.35938C162.494 6.20312 162.572 6.04688 162.67 5.89062L163.022 5.45117C163.061 5.37305 163.1 5.29492 163.139 5.2168C163.178 5.13867 163.236 5.07031 163.315 5.01172C163.529 4.66016 163.764 4.30859 164.018 3.95703C164.272 3.60547 164.535 3.23438 164.809 2.84375C164.984 2.57031 165.18 2.31641 165.395 2.08203C165.609 1.82813 165.834 1.58398 166.068 1.34961C166.147 1.25195 166.234 1.14453 166.332 1.02734C166.449 0.910156 166.566 0.841797 166.684 0.822266C166.859 0.802734 167.055 0.822266 167.27 0.880859C167.328 0.978516 167.377 1.08594 167.416 1.20312C167.475 1.30078 167.524 1.41797 167.563 1.55469C167.602 2.16016 167.582 2.74609 167.504 3.3125C167.426 3.87891 167.338 4.43555 167.24 4.98242C167.221 5.08008 167.211 5.17773 167.211 5.27539C167.231 5.35352 167.231 5.44141 167.211 5.53906C167.172 5.65625 167.123 5.8125 167.065 6.00781C167.006 6.18359 166.957 6.34961 166.918 6.50586C166.918 6.7793 166.859 7.02344 166.742 7.23828C166.625 7.45313 166.547 7.66797 166.508 7.88281C166.449 7.92188 166.41 7.99023 166.391 8.08789C166.391 8.16602 166.361 8.22461 166.303 8.26367C166.264 8.47852 166.195 8.67383 166.098 8.84961C166.02 9.02539 165.951 9.20117 165.893 9.37695C165.6 9.78711 165.297 10.1875 164.984 10.5781C164.691 10.9492 164.408 11.3398 164.135 11.75C163.803 12.2578 163.441 12.7461 163.051 13.2148C162.68 13.6836 162.328 14.1719 161.996 14.6797C161.742 14.8945 161.527 15.1387 161.352 15.4121C161.176 15.6855 160.951 15.9297 160.678 16.1445C160.58 16.5352 160.482 16.9648 160.385 17.4336C160.307 17.8828 160.219 18.3418 160.121 18.8105C160.102 18.9473 160.072 19.084 160.033 19.2207C159.994 19.3379 159.955 19.4648 159.916 19.6016C159.877 19.7578 159.867 19.9238 159.887 20.0996C159.906 20.2754 159.877 20.4414 159.799 20.5977C159.838 20.6953 159.857 20.8125 159.857 20.9492C159.877 21.0664 159.916 21.1738 159.975 21.2715C160.014 21.3301 160.063 21.3887 160.121 21.4473C160.199 21.5059 160.268 21.5352 160.326 21.5352C160.463 21.457 160.541 21.4277 160.561 21.4473C160.58 21.4473 160.609 21.4375 160.649 21.418C160.746 21.3594 160.844 21.2812 160.941 21.1836C161.039 21.0859 161.127 20.998 161.205 20.9199C161.303 20.8809 161.371 20.8418 161.41 20.8027C161.469 20.7441 161.527 20.6953 161.586 20.6562C161.645 20.6172 161.693 20.5879 161.732 20.5684C161.791 20.5488 161.84 20.5195 161.879 20.4805C162.152 20.1875 162.416 19.9727 162.67 19.8359C162.924 19.6797 163.129 19.4941 163.285 19.2793C163.481 19.1621 163.656 19.0547 163.813 18.957C163.93 18.8984 164.027 18.8203 164.106 18.7227C164.203 18.6055 164.32 18.5176 164.457 18.459C164.496 18.4004 164.535 18.3516 164.574 18.3125C164.613 18.2734 164.652 18.2246 164.691 18.166C164.926 18.0098 165.15 17.8535 165.365 17.6973C165.6 17.541 165.844 17.3848 166.098 17.2285C166.137 17.1309 166.195 17.0527 166.274 16.9941C166.371 16.9355 166.449 16.877 166.508 16.8184C166.566 16.7598 166.615 16.7012 166.654 16.6426C166.693 16.5645 166.762 16.5156 166.859 16.4961C166.879 16.3984 166.918 16.3301 166.977 16.291C167.055 16.252 167.123 16.1836 167.182 16.0859ZM165.57 5.1582C165.395 5.19727 165.268 5.28516 165.19 5.42188C165.131 5.55859 165.072 5.71484 165.014 5.89062C164.936 6.04688 164.867 6.16406 164.809 6.24219C164.77 6.32031 164.76 6.4375 164.779 6.59375C164.174 7.58984 163.617 8.63477 163.109 9.72852C162.621 10.8223 162.123 11.9258 161.615 13.0391C162.006 12.6484 162.367 12.1797 162.699 11.6328C163.051 11.0859 163.412 10.6172 163.783 10.2266C164.057 9.5625 164.359 8.94727 164.691 8.38086C165.024 7.79492 165.277 7.14062 165.453 6.41797C165.375 6.18359 165.385 5.97852 165.482 5.80273C165.58 5.60742 165.619 5.39258 165.6 5.1582H165.57ZM213.514 5.89062C212.987 6.06641 212.489 6.26172 212.02 6.47656C211.551 6.67187 211.102 6.90625 210.672 7.17969C210.536 7.27734 210.418 7.39453 210.321 7.53125C210.223 7.64844 210.106 7.75586 209.969 7.85352C209.579 8.14648 209.168 8.29297 208.739 8.29297C208.563 8.19531 208.456 8.09766 208.416 8C208.573 7.60937 208.758 7.28711 208.973 7.0332C209.207 6.75977 209.442 6.48633 209.676 6.21289C209.891 6.07617 210.086 5.93945 210.262 5.80273C210.438 5.66602 210.614 5.51953 210.79 5.36328C210.965 5.20703 211.141 5.05078 211.317 4.89453C211.493 4.73828 211.678 4.61133 211.874 4.51367C212.147 4.37695 212.401 4.25 212.635 4.13281C212.889 3.99609 213.133 3.84961 213.368 3.69336C213.719 3.41992 214.11 3.17578 214.54 2.96094C214.989 2.74609 215.418 2.54102 215.829 2.3457C216.043 2.24805 216.249 2.16016 216.444 2.08203C216.659 2.00391 216.874 1.94531 217.088 1.90625C217.303 1.84766 217.528 1.79883 217.762 1.75977C217.997 1.7207 218.221 1.66211 218.436 1.58398C218.749 1.54492 219.041 1.47656 219.315 1.37891C219.608 1.28125 219.92 1.24219 220.252 1.26172C220.331 1.26172 220.389 1.27148 220.428 1.29102C220.467 1.31055 220.526 1.33008 220.604 1.34961C220.858 1.34961 221.034 1.36914 221.131 1.4082C221.249 1.44727 221.356 1.48633 221.454 1.52539C221.649 1.60352 221.825 1.69141 221.981 1.78906C222.137 1.86719 222.303 1.95508 222.479 2.05273C222.577 2.11133 222.655 2.16992 222.713 2.22852C222.772 2.28711 222.84 2.3457 222.918 2.4043C223.075 2.50195 223.172 2.58008 223.211 2.63867C223.27 2.67773 223.329 2.72656 223.387 2.78516C223.485 2.88281 223.573 2.96094 223.651 3.01953C223.749 3.05859 223.788 3.14648 223.768 3.2832C223.846 3.49805 223.924 3.71289 224.002 3.92773C224.081 4.12305 224.12 4.33789 224.12 4.57227C224.12 4.66992 224.1 4.76758 224.061 4.86523C224.041 4.96289 224.012 5.06055 223.973 5.1582C223.934 5.29492 223.905 5.42188 223.885 5.53906C223.885 5.65625 223.856 5.76367 223.797 5.86133C223.758 6.13477 223.709 6.4082 223.651 6.68164C223.612 6.93555 223.573 7.20898 223.534 7.50195C223.514 7.59961 223.504 7.70703 223.504 7.82422C223.504 7.94141 223.495 8.04883 223.475 8.14648C223.436 8.40039 223.368 8.64453 223.27 8.87891C223.172 9.09375 223.124 9.30859 223.124 9.52344C223.006 9.93359 222.879 10.2656 222.743 10.5195C222.606 10.7539 222.459 10.998 222.303 11.252C222.108 11.5254 221.942 11.8379 221.805 12.1895C221.668 12.5215 221.522 12.8535 221.366 13.1855C221.327 13.2441 221.297 13.3125 221.278 13.3906C221.278 13.4688 221.258 13.5371 221.219 13.5957C221.043 13.8105 220.946 13.957 220.926 14.0352C220.907 14.1133 220.877 14.2012 220.838 14.2988C220.78 14.4355 220.711 14.5918 220.633 14.7676C220.575 14.9238 220.516 15.0801 220.457 15.2363C220.418 15.2949 220.36 15.4023 220.282 15.5586C220.223 15.6758 220.145 15.793 220.047 15.9102C219.969 16.0273 219.881 16.1543 219.784 16.291C219.471 16.7793 219.149 17.2383 218.817 17.668C218.485 18.0977 218.124 18.5176 217.733 18.9277C217.245 19.416 216.727 19.8652 216.18 20.2754C215.653 20.6855 215.125 21.1152 214.598 21.5645C214.403 21.7207 214.207 21.8867 214.012 22.0625C213.817 22.2188 213.602 22.375 213.368 22.5312C213.27 22.6094 213.163 22.6777 213.045 22.7363C212.948 22.7949 212.85 22.873 212.752 22.9707C212.44 23.2637 212.049 23.5176 211.581 23.7324C211.346 23.791 211.2 23.8301 211.141 23.8496C211.082 23.8887 211.034 23.9082 210.995 23.9082C210.877 23.9473 210.76 23.9668 210.643 23.9668C210.526 23.9668 210.409 23.9766 210.291 23.9961C210.233 23.9961 210.174 24.0059 210.116 24.0254C210.057 24.0449 209.989 24.0547 209.911 24.0547C209.754 24.0352 209.588 23.9961 209.413 23.9375C209.256 23.8789 209.1 23.8301 208.944 23.791C208.866 23.7715 208.797 23.752 208.739 23.7324C208.68 23.7129 208.612 23.6934 208.534 23.6738C208.397 23.5957 208.27 23.5273 208.153 23.4688C208.036 23.4102 207.918 23.3418 207.801 23.2637C207.508 23.1855 207.332 23.0781 207.274 22.9414C207.215 22.8047 207.137 22.6777 207.04 22.5605C206.922 22.1895 206.825 21.8574 206.747 21.5645C206.688 21.2715 206.61 20.9395 206.512 20.5684C206.473 20.4316 206.434 20.3145 206.395 20.2168C206.375 20.0996 206.375 19.9727 206.395 19.8359C206.415 19.7383 206.454 19.6309 206.512 19.5137C206.571 19.3965 206.629 19.2793 206.688 19.1621C206.844 18.8887 206.961 18.6152 207.04 18.3418C207.137 18.0488 207.264 17.7656 207.42 17.4922C207.459 17.4531 207.489 17.4043 207.508 17.3457C207.547 17.2871 207.586 17.2383 207.625 17.1992C207.684 17.082 207.733 16.9648 207.772 16.8477C207.831 16.7305 207.879 16.623 207.918 16.5254C208.075 16.1934 208.231 15.8711 208.387 15.5586C208.563 15.2266 208.749 14.9043 208.944 14.5918C209.159 14.2207 209.334 13.918 209.471 13.6836C209.627 13.4297 209.813 13.1953 210.028 12.9805C210.145 12.6484 210.291 12.3555 210.467 12.1016C210.643 11.8281 210.79 11.5254 210.907 11.1934C211.024 11.0371 211.122 10.8516 211.2 10.6367C211.297 10.4219 211.395 10.2168 211.493 10.0215C211.649 9.63086 211.805 9.29883 211.961 9.02539C212 8.9668 212.04 8.9082 212.079 8.84961C212.118 8.79102 212.147 8.72266 212.166 8.64453C212.225 8.46875 212.293 8.29297 212.372 8.11719C212.45 7.94141 212.528 7.77539 212.606 7.61914C212.762 7.28711 212.909 6.99414 213.045 6.74023C213.202 6.4668 213.358 6.18359 213.514 5.89062ZM219.959 3.48828C219.686 3.50781 219.422 3.56641 219.168 3.66406C218.934 3.74219 218.69 3.83008 218.436 3.92773C218.26 3.98633 218.094 4.05469 217.938 4.13281C217.782 4.21094 217.625 4.28906 217.469 4.36719C217.293 4.46484 217.127 4.5625 216.971 4.66016C216.834 4.75781 216.688 4.86523 216.532 4.98242C216.512 5.04102 216.483 5.09961 216.444 5.1582C216.424 5.19727 216.405 5.24609 216.385 5.30469C216.17 5.51953 216.004 5.76367 215.887 6.03711C215.79 6.29102 215.672 6.53516 215.536 6.76953C215.379 7.02344 215.233 7.27734 215.096 7.53125C214.979 7.76562 214.852 8.00977 214.715 8.26367C214.618 8.47852 214.51 8.67383 214.393 8.84961C214.295 9.00586 214.207 9.18164 214.129 9.37695C213.875 9.78711 213.709 10.1094 213.631 10.3438C213.573 10.4805 213.495 10.6172 213.397 10.7539C213.319 10.8711 213.26 11.0078 213.221 11.1641C213.163 11.3008 213.094 11.4375 213.016 11.5742C212.957 11.6914 212.909 11.8184 212.87 11.9551C212.831 12.0527 212.801 12.1602 212.782 12.2773C212.782 12.3945 212.762 12.502 212.723 12.5996C212.665 12.7754 212.596 12.9512 212.518 13.127C212.459 13.3027 212.401 13.498 212.342 13.7129C212.245 13.8691 212.137 14.0059 212.02 14.123C211.922 14.2402 211.834 14.3672 211.756 14.5039C211.678 14.7188 211.6 14.875 211.522 14.9727C211.463 15.0508 211.415 15.1387 211.375 15.2363C211.278 15.3926 211.19 15.5586 211.112 15.7344C211.034 15.9102 210.946 16.0859 210.848 16.2617C210.809 16.3203 210.76 16.3789 210.702 16.4375C210.663 16.4961 210.624 16.5645 210.584 16.6426C210.526 16.7598 210.477 16.8867 210.438 17.0234C210.399 17.1406 210.35 17.2773 210.291 17.4336C210.233 17.5703 210.165 17.6973 210.086 17.8145C210.028 17.9316 209.979 18.0488 209.94 18.166C209.862 18.3027 209.793 18.4395 209.735 18.5762C209.676 18.7129 209.627 18.8398 209.588 18.957C209.53 19.0938 209.481 19.2305 209.442 19.3672C209.403 19.5039 209.354 19.6406 209.295 19.7773C209.178 20.0117 209.1 20.1973 209.061 20.334C209.022 20.4512 208.983 20.5684 208.944 20.6855C208.905 20.8027 208.856 20.9297 208.797 21.0664C208.758 21.1836 208.739 21.3008 208.739 21.418C208.661 21.4766 208.612 21.5449 208.592 21.623C208.573 21.7012 208.563 21.7891 208.563 21.8867C208.563 21.9648 208.563 22.0527 208.563 22.1504C208.563 22.2285 208.534 22.2969 208.475 22.3555C208.788 22.3164 209.032 22.2383 209.207 22.1211C209.403 22.0039 209.637 21.9258 209.911 21.8867C210.106 21.7891 210.272 21.6719 210.409 21.5352C210.565 21.3789 210.78 21.291 211.053 21.2715C211.366 21.0762 211.639 20.8711 211.874 20.6562C212.127 20.4219 212.44 20.2363 212.811 20.0996C213.104 19.8457 213.407 19.6113 213.719 19.3965C214.032 19.1621 214.305 18.8789 214.54 18.5469C214.637 18.5078 214.774 18.4199 214.95 18.2832C215.067 18.1465 215.174 18.0098 215.272 17.873C215.389 17.7363 215.497 17.5898 215.594 17.4336C215.79 17.2773 215.956 17.1016 216.092 16.9062C216.229 16.7109 216.405 16.5449 216.62 16.4082C216.698 16.2129 216.805 16.0566 216.942 15.9395C217.079 15.8027 217.206 15.6562 217.323 15.5C217.479 15.3047 217.616 15.0996 217.733 14.8848C217.87 14.6699 218.016 14.4746 218.172 14.2988C218.446 13.791 218.729 13.3027 219.022 12.834C219.334 12.3652 219.598 11.8477 219.813 11.2812C220.008 11.0273 220.174 10.7637 220.311 10.4902C220.467 10.1973 220.594 9.91406 220.692 9.64062C220.829 9.50391 220.916 9.32812 220.956 9.11328C221.014 8.87891 221.141 8.74219 221.336 8.70312C221.493 8.46875 221.571 8.19531 221.571 7.88281C221.59 7.57031 221.62 7.26758 221.659 6.97461C221.678 6.87695 221.678 6.78906 221.659 6.71094C221.639 6.63281 221.629 6.55469 221.629 6.47656C221.649 6.32031 221.668 6.16406 221.688 6.00781C221.727 5.83203 221.727 5.68555 221.688 5.56836C221.59 5.41211 221.532 5.31445 221.512 5.27539C221.512 5.2168 221.502 5.16797 221.483 5.12891C221.444 5.01172 221.424 4.9043 221.424 4.80664C221.385 4.65039 221.356 4.54297 221.336 4.48438C221.336 4.40625 221.307 4.31836 221.249 4.2207C221.151 4.08398 221.073 3.95703 221.014 3.83984C220.975 3.72266 220.907 3.61523 220.809 3.51758C220.653 3.49805 220.506 3.48828 220.37 3.48828C220.252 3.48828 220.116 3.48828 219.959 3.48828ZM248.736 12.6875C248.814 12.8047 248.931 12.8828 249.088 12.9219C249.244 12.9414 249.371 12.9902 249.468 13.0684C249.625 13.1074 249.742 13.1367 249.82 13.1562C249.918 13.1562 250.015 13.166 250.113 13.1855C250.25 13.3223 250.328 13.3906 250.347 13.3906C250.367 13.3906 250.367 13.4102 250.347 13.4492C250.601 13.6836 250.836 13.9473 251.05 14.2402C251.09 14.3184 251.119 14.4258 251.138 14.5625C251.177 14.6797 251.216 14.7969 251.256 14.9141C251.295 15.0117 251.314 15.1094 251.314 15.207C251.334 15.3047 251.353 15.4023 251.373 15.5C251.412 15.832 251.392 16.1348 251.314 16.4082C251.236 16.6816 251.177 16.9551 251.138 17.2285C251.041 17.3652 250.992 17.502 250.992 17.6387C250.992 17.7754 250.972 17.9121 250.933 18.0488C250.914 18.1074 250.884 18.166 250.845 18.2246C250.826 18.2832 250.806 18.3516 250.787 18.4297C250.728 18.7031 250.631 18.9473 250.494 19.1621C250.377 19.3574 250.269 19.5625 250.172 19.7773C250.152 19.9141 250.123 20.041 250.084 20.1582C250.045 20.2754 250.015 20.3828 249.996 20.4805C249.976 20.5586 249.927 20.627 249.849 20.6855C249.791 20.7441 249.781 20.8125 249.82 20.8906C249.664 20.9688 249.586 21.0859 249.586 21.2422C249.547 21.2812 249.488 21.3301 249.41 21.3887C249.351 21.4277 249.302 21.4961 249.263 21.5938C248.99 21.7891 248.804 21.9355 248.707 22.0332C248.629 22.1113 248.541 22.1895 248.443 22.2676C248.365 22.3066 248.287 22.3652 248.209 22.4434C248.15 22.5215 248.082 22.5801 248.004 22.6191C247.945 22.6582 247.877 22.6973 247.799 22.7363C247.74 22.7754 247.681 22.8145 247.623 22.8535C247.486 22.9512 247.349 23.0391 247.213 23.1172C247.076 23.2148 246.929 23.3125 246.773 23.4102C246.656 23.4688 246.549 23.5273 246.451 23.5859C246.373 23.6445 246.285 23.6934 246.187 23.7324C246.09 23.7715 245.972 23.8008 245.836 23.8203C245.718 23.8398 245.611 23.8691 245.513 23.9082C245.123 23.9668 244.742 23.9375 244.371 23.8203C244 23.7031 243.677 23.5762 243.404 23.4395C243.189 23.3418 242.945 23.2539 242.672 23.1758C242.418 23.0977 242.193 22.9805 241.998 22.8242C241.685 22.5703 241.461 22.248 241.324 21.8574C241.187 21.4473 241.011 21.0664 240.797 20.7148C240.816 20.5781 240.787 20.4707 240.709 20.3926C240.65 20.3145 240.591 20.2266 240.533 20.1289C240.494 20.0312 240.445 19.9531 240.386 19.8945C240.347 19.8164 240.308 19.748 240.269 19.6895C240.191 19.3965 240.142 19.2305 240.123 19.1914C239.888 19.2305 239.732 19.3672 239.654 19.6016C239.576 19.8164 239.478 20.0215 239.361 20.2168C239.341 20.334 239.302 20.4414 239.244 20.5391C239.205 20.6172 239.156 20.7051 239.097 20.8027C239.058 20.9004 239.039 20.9883 239.039 21.0664C239.039 21.1445 239 21.2031 238.922 21.2422C238.687 21.2617 238.56 21.3203 238.541 21.418C238.521 21.5156 238.463 21.5547 238.365 21.5352C238.384 21.6719 238.355 21.7988 238.277 21.916C238.199 22.0137 238.179 22.1309 238.218 22.2676C238.199 22.3652 238.16 22.4434 238.101 22.502C238.062 22.5605 238.023 22.6387 237.984 22.7363C237.847 22.7949 237.662 22.8438 237.427 22.8828C237.213 22.9219 237.056 22.873 236.959 22.7363C236.783 22.6973 236.646 22.6484 236.549 22.5898C236.451 22.5312 236.402 22.4434 236.402 22.3262C236.402 22.248 236.431 22.1895 236.49 22.1504C236.529 22.1113 236.529 22.043 236.49 21.9453C236.627 21.6328 236.793 21.3594 236.988 21.125C237.183 20.8711 237.34 20.5879 237.457 20.2754C237.613 20.002 237.759 19.7285 237.896 19.4551C238.052 19.1621 238.209 18.8789 238.365 18.6055C238.521 18.2734 238.687 17.9707 238.863 17.6973C239.039 17.4238 239.195 17.1211 239.332 16.7891C239.371 16.7109 239.39 16.6523 239.39 16.6133C239.41 16.5547 239.4 16.4863 239.361 16.4082C239.556 15.8418 239.791 15.3145 240.064 14.8262C240.338 14.3379 240.601 13.8398 240.855 13.332C240.953 12.9805 241.09 12.6484 241.265 12.3359C241.441 12.0039 241.597 11.6621 241.734 11.3105C241.949 10.9004 242.134 10.5391 242.291 10.2266C242.466 9.91406 242.642 9.5918 242.818 9.25977C242.955 9.10352 243.043 8.9375 243.082 8.76172C243.14 8.56641 243.228 8.41992 243.345 8.32227C243.384 8.22461 243.424 8.13672 243.463 8.05859C243.521 7.98047 243.57 7.89258 243.609 7.79492C243.765 7.4043 243.912 7.12109 244.049 6.94531C244.185 6.75 244.273 6.54492 244.312 6.33008C244.41 6.23242 244.498 6.10547 244.576 5.94922C244.674 5.77344 244.761 5.60742 244.84 5.45117C244.879 5.35352 244.927 5.23633 244.986 5.09961C245.064 4.96289 245.132 4.81641 245.191 4.66016C245.23 4.60156 245.259 4.55273 245.279 4.51367C245.299 4.47461 245.318 4.41602 245.338 4.33789C245.435 4.24023 245.504 4.13281 245.543 4.01562C245.582 3.87891 245.64 3.76172 245.718 3.66406C245.582 3.52734 245.416 3.49805 245.22 3.57617C245.025 3.6543 244.84 3.74219 244.664 3.83984C244.332 3.97656 244.019 4.12305 243.726 4.2793C243.433 4.43555 243.15 4.5918 242.877 4.74805C242.584 4.9043 242.291 5.01172 241.998 5.07031C241.724 5.12891 241.451 5.1875 241.177 5.24609C241.021 5.14844 240.914 5.13867 240.855 5.2168C240.816 5.27539 240.748 5.27539 240.65 5.2168C240.611 5.2168 240.562 5.23633 240.504 5.27539C240.465 5.29492 240.396 5.30469 240.299 5.30469C240.24 5.20703 240.25 5.13867 240.328 5.09961C240.425 5.04102 240.484 4.97266 240.504 4.89453C240.953 4.62109 241.422 4.37695 241.91 4.16211C242.398 3.92773 242.867 3.67383 243.316 3.40039C243.804 3.10742 244.234 2.87305 244.605 2.69727C244.976 2.52148 245.347 2.31641 245.718 2.08203C246.168 1.92578 246.578 1.75977 246.949 1.58398C247.34 1.38867 247.789 1.27148 248.297 1.23242C248.511 1.0957 248.756 1.04687 249.029 1.08594C249.302 1.10547 249.556 1.06641 249.791 0.96875C249.947 0.96875 250.132 0.96875 250.347 0.96875C250.582 0.949219 250.797 0.949219 250.992 0.96875C251.441 0.988281 251.783 1.00781 252.017 1.02734C252.271 1.04687 252.506 1.08594 252.72 1.14453C252.799 1.16406 252.877 1.18359 252.955 1.20312C253.052 1.22266 253.14 1.24219 253.218 1.26172C253.433 1.33984 253.648 1.4082 253.863 1.4668C254.097 1.50586 254.293 1.57422 254.449 1.67188C254.742 1.92578 254.957 2.14062 255.093 2.31641C255.25 2.47266 255.357 2.66797 255.416 2.90234C255.533 3.17578 255.64 3.41992 255.738 3.63477C255.836 3.84961 255.894 4.08398 255.914 4.33789C255.933 4.43555 255.933 4.54297 255.914 4.66016C255.914 4.77734 255.914 4.9043 255.914 5.04102C255.894 5.2168 255.894 5.40234 255.914 5.59766C255.933 5.77344 255.933 5.96875 255.914 6.18359C255.894 6.41797 255.845 6.65234 255.767 6.88672C255.709 7.12109 255.631 7.3457 255.533 7.56055C255.435 7.77539 255.367 7.99023 255.328 8.20508C255.308 8.41992 255.23 8.61523 255.093 8.79102C254.976 9.00586 254.879 9.18164 254.8 9.31836C254.742 9.43555 254.674 9.5625 254.595 9.69922C254.556 9.73828 254.507 9.77734 254.449 9.81641C254.41 9.85547 254.381 9.91406 254.361 9.99219C254.146 10.168 253.941 10.3535 253.746 10.5488C253.55 10.7246 253.316 10.8711 253.043 10.9883C252.847 11.1836 252.623 11.3691 252.369 11.5449C252.134 11.7012 251.9 11.8574 251.666 12.0137C251.607 12.0527 251.539 12.1016 251.461 12.1602C251.402 12.1992 251.314 12.2285 251.197 12.248C251.041 12.2871 250.904 12.3164 250.787 12.3359C250.689 12.3555 250.552 12.3848 250.377 12.4238C250.142 12.4434 249.908 12.4727 249.674 12.5117C249.439 12.5508 249.215 12.5898 249 12.6289L248.736 12.6875ZM247.007 11.5156C247.281 11.3984 247.554 11.2812 247.828 11.1641C248.101 11.0273 248.375 10.9102 248.648 10.8125C248.804 10.7734 248.951 10.7344 249.088 10.6953C249.224 10.6562 249.351 10.6074 249.468 10.5488C249.683 10.4121 249.83 10.3242 249.908 10.2852C249.986 10.2461 250.064 10.1973 250.142 10.1387C250.259 10.0801 250.367 10.002 250.465 9.9043C250.582 9.80664 250.689 9.72852 250.787 9.66992C250.904 9.57227 251.011 9.49414 251.109 9.43555C251.226 9.35742 251.343 9.26953 251.461 9.17188C251.539 9.11328 251.617 9.06445 251.695 9.02539C251.793 8.9668 251.881 8.9082 251.959 8.84961C252.095 8.71289 252.203 8.56641 252.281 8.41016C252.379 8.25391 252.496 8.11719 252.632 8C252.73 7.80469 252.818 7.60937 252.896 7.41406C252.974 7.21875 253.043 7.01367 253.101 6.79883C253.16 6.62305 253.218 6.45703 253.277 6.30078C253.336 6.125 253.384 5.95898 253.424 5.80273C253.443 5.60742 253.463 5.4707 253.482 5.39258C253.521 5.31445 253.531 5.23633 253.511 5.1582C253.511 5.08008 253.492 5.00195 253.453 4.92383C253.414 4.8457 253.375 4.77734 253.336 4.71875C253.238 4.50391 253.121 4.29883 252.984 4.10352C252.847 3.9082 252.72 3.71289 252.603 3.51758C252.427 3.38086 252.213 3.25391 251.959 3.13672C251.724 3 251.461 2.98047 251.168 3.07812C251.129 3.03906 251.06 3.01953 250.963 3.01953C250.865 3 250.797 3.00977 250.757 3.04883C250.621 3.0293 250.474 3.0293 250.318 3.04883C250.181 3.04883 250.035 3.05859 249.879 3.07812C249.722 3.09766 249.576 3.12695 249.439 3.16602C249.302 3.18555 249.205 3.20508 249.146 3.22461C249.107 3.26367 249.068 3.32227 249.029 3.40039C248.99 3.45898 248.951 3.51758 248.912 3.57617C248.814 3.75195 248.716 3.87891 248.619 3.95703C248.541 4.01562 248.453 4.12305 248.355 4.2793C248.277 4.37695 248.209 4.46484 248.15 4.54297C248.091 4.62109 248.043 4.70898 248.004 4.80664C247.906 4.8457 247.838 4.89453 247.799 4.95312C247.779 5.01172 247.75 5.07031 247.711 5.12891C247.613 5.16797 247.554 5.24609 247.535 5.36328C247.515 5.48047 247.466 5.55859 247.388 5.59766C247.232 5.83203 247.115 6.03711 247.037 6.21289C246.978 6.36914 246.9 6.58398 246.802 6.85742C246.646 7.15039 246.5 7.43359 246.363 7.70703C246.246 7.96094 246.119 8.22461 245.982 8.49805C245.943 8.61523 245.904 8.72266 245.865 8.82031C245.826 8.91797 245.787 9.01562 245.748 9.11328C245.689 9.21094 245.621 9.30859 245.543 9.40625C245.465 9.48438 245.386 9.57227 245.308 9.66992C245.093 10.002 244.908 10.334 244.752 10.666C244.615 10.998 244.449 11.3203 244.254 11.6328C243.824 12.2773 243.433 12.9219 243.082 13.5664C242.984 13.6445 242.935 13.7324 242.935 13.8301C242.955 13.9277 242.906 13.9961 242.789 14.0352C242.632 14.25 242.506 14.416 242.408 14.5332C242.369 14.6113 242.33 14.6895 242.291 14.7676C242.252 14.8457 242.213 14.9336 242.174 15.0312C242.115 15.1289 242.047 15.2363 241.968 15.3535C241.91 15.4512 241.861 15.5488 241.822 15.6465C241.724 15.8613 241.617 16.0762 241.5 16.291C241.382 16.4863 241.275 16.6719 241.177 16.8477C241.138 16.9258 241.099 16.9941 241.06 17.0527C241.021 17.1113 240.982 17.1699 240.943 17.2285C240.904 17.3848 240.875 17.4727 240.855 17.4922C240.836 17.4922 240.816 17.5117 240.797 17.5508C240.777 17.6484 240.787 17.7363 240.826 17.8145C240.865 17.873 240.904 17.9414 240.943 18.0195C240.963 18.0781 240.972 18.1367 240.972 18.1953C240.972 18.2344 240.982 18.2832 241.002 18.3418C241.08 18.5566 241.138 18.7129 241.177 18.8105C241.236 18.8887 241.304 19.0156 241.382 19.1914C241.422 19.2695 241.451 19.3379 241.47 19.3965C241.49 19.4551 241.519 19.5137 241.558 19.5723C241.597 19.6504 241.627 19.7188 241.646 19.7773C241.685 19.8359 241.724 19.9141 241.763 20.0117C241.881 20.2461 242.027 20.4512 242.203 20.627C242.379 20.8027 242.545 20.998 242.701 21.2129C242.877 21.3301 243.072 21.3789 243.287 21.3594C243.521 21.3398 243.746 21.3398 243.961 21.3594C244.156 21.2812 244.351 21.2715 244.547 21.3301C244.761 21.3691 244.966 21.3887 245.162 21.3887C245.22 21.3691 245.269 21.3496 245.308 21.3301C245.367 21.291 245.425 21.291 245.484 21.3301C245.601 21.2715 245.718 21.2129 245.836 21.1543C245.972 21.0957 246.099 21.0371 246.216 20.9785C246.392 20.8223 246.568 20.6855 246.744 20.5684C246.92 20.4316 247.066 20.2656 247.183 20.0703C247.222 20.0312 247.252 19.9922 247.271 19.9531C247.31 19.8945 247.349 19.8359 247.388 19.7773C247.466 19.6797 247.525 19.582 247.564 19.4844C247.623 19.3672 247.672 19.25 247.711 19.1328C247.925 18.918 248.091 18.7129 248.209 18.5176C248.326 18.3027 248.463 18.1074 248.619 17.9316C248.658 17.7754 248.736 17.6387 248.853 17.5215C248.97 17.4043 249.039 17.248 249.058 17.0527C249.058 16.6816 249.029 16.4082 248.97 16.2324C248.912 16.0371 248.853 15.8516 248.795 15.6758C248.756 15.5977 248.736 15.5195 248.736 15.4414C248.736 15.3438 248.716 15.2559 248.677 15.1777C248.521 14.9434 248.394 14.748 248.297 14.5918C248.218 14.416 248.121 14.2793 248.004 14.1816C247.925 14.1426 247.838 14.123 247.74 14.123C247.662 14.123 247.584 14.1035 247.506 14.0645C247.291 13.9863 247.076 13.9082 246.861 13.8301C246.646 13.752 246.412 13.6934 246.158 13.6543C246.06 13.5957 245.972 13.5371 245.894 13.4785C245.816 13.4199 245.728 13.3711 245.631 13.332C245.552 13.2148 245.465 13.1465 245.367 13.127C245.367 13.0098 245.318 12.9316 245.22 12.8926C245.123 12.8535 245.054 12.7852 245.015 12.6875C244.976 12.5898 244.957 12.4824 244.957 12.3652C244.957 12.248 244.927 12.1406 244.869 12.043C244.966 11.9844 245.084 11.9648 245.22 11.9844C245.357 11.9844 245.474 11.9355 245.572 11.8379C245.728 11.8379 245.865 11.8184 245.982 11.7793C246.099 11.7207 246.236 11.6719 246.392 11.6328C246.509 11.6133 246.617 11.623 246.715 11.6621C246.812 11.6816 246.91 11.6621 247.007 11.6035V11.5156Z" fill="#FF8A00"/>
</svg>
